<?xml version="1.0" encoding="UTF-8" standalone="no"?>
<!-- Created with Inkscape (http://www.inkscape.org/) -->

<svg
   version="1.1"
   id="svg9"
   width="299.20001"
   height="277.60001"
   viewBox="0 0 299.20001 277.60001"
   sodipodi:docname="k.svg"
   inkscape:version="1.2.2 (732a01da63, 2022-12-09)"
   inkscape:export-filename="mkilogo2.png"
   inkscape:export-xdpi="1604.278"
   inkscape:export-ydpi="1604.278"
   xmlns:inkscape="http://www.inkscape.org/namespaces/inkscape"
   xmlns:sodipodi="http://sodipodi.sourceforge.net/DTD/sodipodi-0.dtd"
   xmlns="http://www.w3.org/2000/svg"
   xmlns:svg="http://www.w3.org/2000/svg">
  <defs
     id="defs13" />
  <sodipodi:namedview
     id="namedview11"
     pagecolor="#ffffff"
     bordercolor="#000000"
     borderopacity="0.25"
     inkscape:showpageshadow="2"
     inkscape:pageopacity="0.0"
     inkscape:pagecheckerboard="0"
     inkscape:deskcolor="#d1d1d1"
     showgrid="false"
     inkscape:zoom="0.76"
     inkscape:cx="165.13158"
     inkscape:cy="154.60526"
     inkscape:window-width="1920"
     inkscape:window-height="991"
     inkscape:window-x="-9"
     inkscape:window-y="-9"
     inkscape:window-maximized="1"
     inkscape:current-layer="g15" />
  <g
     inkscape:groupmode="layer"
     inkscape:label="Image"
     id="g15">
    <text
       xml:space="preserve"
       style="font-size:78.1039px;fill:#37b6ff;fill-opacity:1;stroke:#000000;stroke-width:2.626;stroke-linecap:round;stroke-linejoin:round;stroke-dasharray:none;stroke-opacity:1"
       x="138.15286"
       y="192.31937"
       id="text4372"
       transform="scale(1.0528894,0.94976736)"><tspan
         sodipodi:role="line"
         id="tspan4370"
         x="138.15286"
         y="192.31937"
         style="stroke-width:2.626;stroke-dasharray:none" /></text>
    <g
       id="g1304"
       transform="matrix(-1,0,0,1,298.26922,0)"
       style="fill:none">
      <path
         style="fill:none;fill-opacity:1;stroke:#000000;stroke-width:3;stroke-linecap:round;stroke-linejoin:round;stroke-dasharray:none;stroke-opacity:1"
         d="m 153.88532,21.922959 -0.73969,220.113731 c 0,0 -0.17992,14.17709 30.44724,15.11425 0,0 33.10611,-1.53535 35.22522,-14.91485 0,0 28.94584,-19.4899 25.7221,-35.60861 0,0 30.44645,-19.34245 12.89496,-43.69961 0,0 17.19329,-17.90968 -3.22374,-34.02839 0,0 21.84981,-34.028385 -9.31303,-54.803611 0,0 -5.7311,-30.088259 -34.74478,-27.580904 0,0 -15.10792,-34.85627 -56.26828,-24.592006 z"
         id="path1178-1" />
      <path
         style="fill:none;fill-opacity:0;stroke:#000000;stroke-width:3;stroke-linecap:round;stroke-linejoin:round;stroke-dasharray:none;stroke-opacity:1"
         d="m 210.5118,46.873159 c 0,0 5.3729,13.611355 -3.58193,24.357162"
         id="path3198-1" />
      <path
         style="fill:none;fill-opacity:0;stroke:#000000;stroke-width:3;stroke-linecap:round;stroke-linejoin:round;stroke-dasharray:none;stroke-opacity:1"
         d="m 244.54019,75.528643 c 0,0 -1.07459,11.820388 -13.96955,20.775227"
         id="path3204-4" />
      <path
         style="fill:none;fill-opacity:0;stroke:#000000;stroke-width:3;stroke-linecap:round;stroke-linejoin:round;stroke-dasharray:none;stroke-opacity:1"
         d="m 218.75025,242.08864 c 0,0 -10.7458,-13.96954 -26.50632,-11.104"
         id="path3208-8" />
      <path
         style="fill:none;fill-opacity:0;stroke:#000000;stroke-width:3;stroke-linecap:round;stroke-linejoin:round;stroke-dasharray:none;stroke-opacity:1"
         d="m 182.5727,241.37226 c 0,0 -18.26787,-4.29833 -16.11871,-23.99897"
         id="path3212-5" />
      <path
         style="fill:none;stroke:#000000;stroke-width:3;stroke-linecap:round;stroke-linejoin:round;stroke-dasharray:none"
         d="m 244.67112,206.28758 c 0,0 -10.75615,1.92075 -19.20741,-2.68903"
         id="path1019"
         sodipodi:nodetypes="cc" />
      <path
         style="fill:none;fill-opacity:0;stroke:#000000;stroke-width:3;stroke-linecap:round;stroke-linejoin:round;stroke-dasharray:none;stroke-opacity:1"
         d="m 254.46357,128.36258 c 0,0 -3.58194,7.52206 -17.90968,12.17858"
         id="path3202-4" />
    </g>
    <g
       id="g1295"
       transform="matrix(-1,0,0,1,298.26922,0)"
       style="fill:none">
      <path
         style="fill:none;fill-opacity:1;stroke:#000000;stroke-width:3;stroke-linecap:round;stroke-linejoin:round;stroke-dasharray:none;stroke-opacity:1"
         d="m 144.3839,21.973156 0.73969,220.113734 c 0,0 0.17992,14.17709 -30.44724,15.11425 0,0 -33.106116,-1.53535 -35.225227,-14.91485 0,0 -28.945834,-19.4899 -25.722094,-35.60861 0,0 -30.44645,-19.34245 -12.89496,-43.69961 0,0 -17.19329,-17.90968 3.22374,-34.02839 0,0 -21.84981,-34.028388 9.31303,-54.803614 0,0 5.731098,-30.088259 34.744776,-27.580904 0,0 15.107925,-34.85627 56.268285,-24.592006 z"
         id="path1178" />
      <path
         style="fill:none;fill-opacity:0;stroke:#000000;stroke-width:3;stroke-linecap:round;stroke-linejoin:round;stroke-dasharray:none;stroke-opacity:1"
         d="m 87.757421,46.923356 c 0,0 -5.372903,13.611355 3.581936,24.357162"
         id="path3198" />
      <path
         style="fill:none;fill-opacity:0;stroke:#000000;stroke-width:3;stroke-linecap:round;stroke-linejoin:round;stroke-dasharray:none;stroke-opacity:1"
         d="m 43.699614,127.8751 c 0,0 3.581935,7.52206 17.909678,12.17858"
         id="path3202" />
      <path
         style="fill:none;fill-opacity:0;stroke:#000000;stroke-width:3;stroke-linecap:round;stroke-linejoin:round;stroke-dasharray:none;stroke-opacity:1"
         d="m 53.729033,75.57884 c 0,0 1.074581,11.820388 13.969549,20.775227"
         id="path3204" />
      <path
         style="fill:none;fill-opacity:0;stroke:#000000;stroke-width:3;stroke-linecap:round;stroke-linejoin:round;stroke-dasharray:none;stroke-opacity:1"
         d="m 53.012646,205.96129 c 0,0 27.580904,6.44749 39.043098,-11.46219"
         id="path3206" />
      <path
         style="fill:none;fill-opacity:0;stroke:#000000;stroke-width:3;stroke-linecap:round;stroke-linejoin:round;stroke-dasharray:none;stroke-opacity:1"
         d="m 79.518969,242.13884 c 0,0 10.745807,-13.96954 26.506321,-11.104"
         id="path3208" />
      <path
         style="fill:none;fill-opacity:0;stroke:#000000;stroke-width:3;stroke-linecap:round;stroke-linejoin:round;stroke-dasharray:none;stroke-opacity:1"
         d="m 66.265808,166.9182 c 0,0 36.893932,-5.01471 43.699612,23.99897"
         id="path3210" />
      <path
         style="fill:none;fill-opacity:0;stroke:#000000;stroke-width:3;stroke-linecap:round;stroke-linejoin:round;stroke-dasharray:none;stroke-opacity:1"
         d="m 242.83752,165.25884 c 0,0 -15.76578,-0.0208 -17.19338,8.24889"
         id="path3210-0"
         sodipodi:nodetypes="cc" />
      <path
         style="fill:none;fill-opacity:0;stroke:#000000;stroke-width:3;stroke-linecap:round;stroke-linejoin:round;stroke-dasharray:none;stroke-opacity:1"
         d="m 115.69652,241.42246 c 0,0 18.26787,-4.29833 16.11871,-23.99897"
         id="path3212" />
      <path
         style="fill:none;fill-opacity:0;stroke:#000000;stroke-width:3;stroke-linecap:round;stroke-linejoin:round;stroke-dasharray:none;stroke-opacity:1"
         d="m 113.54736,157.24697 c 0,0 13.25316,-2.14916 14.68593,-25.07355"
         id="path3214" />
      <path
         style="fill:none;fill-opacity:0;stroke:#000000;stroke-width:3;stroke-linecap:round;stroke-linejoin:round;stroke-dasharray:none;stroke-opacity:1"
         d="m 85.60826,106.38349 c 0,0 -3.581936,16.4769 12.536774,30.08825"
         id="path3216" />
      <path
         style="fill:none;fill-opacity:0;stroke:#000000;stroke-width:3;stroke-linecap:round;stroke-linejoin:round;stroke-dasharray:none;stroke-opacity:1"
         d="m 109.24903,103.24903 c 0,0 25.07355,-16.118705 8.23846,-57.669158"
         id="path3218" />
      <path
         style="fill:none;fill-opacity:0;stroke:#000000;stroke-width:3;stroke-linecap:round;stroke-linejoin:round;stroke-dasharray:none;stroke-opacity:1"
         d="m 180.66038,65.914138 c 0,0 -6.63443,-10.740625 -1.70794,-21.943372"
         id="path3218-4"
         sodipodi:nodetypes="cc" />
    </g>
    <text
       xml:space="preserve"
       style="font-style:normal;font-variant:normal;font-weight:normal;font-stretch:normal;font-size:68.4875px;font-family:'CMU Serif';-inkscape-font-specification:'CMU Serif';fill:#000000;fill-opacity:1;stroke:#000000;stroke-width:0;stroke-linecap:round;stroke-linejoin:round;stroke-dasharray:none"
       x="-208.39075"
       y="127.59366"
       id="text917"
       transform="rotate(-90)"><tspan
         sodipodi:role="line"
         id="tspan915"
         x="-208.39075"
         y="127.59366"
         style="stroke-width:0">MKi</tspan></text>
  </g>
</svg>
